<?xml version="1.0" encoding="UTF-8" standalone="no"?>
<!-- Created with Inkscape (http://www.inkscape.org/) -->

<svg
   width="200mm"
   height="200mm"
   viewBox="0 0 100 100"
   version="1.1"
   id="svg1"
   xml:space="preserve"
   inkscape:export-filename="honey .svg"
   inkscape:export-xdpi="96"
   inkscape:export-ydpi="96"
   sodipodi:docname="Logo_Picture.svg"
   inkscape:version="1.3.2 (091e20e, 2023-11-25, custom)"
   xmlns:inkscape="http://www.inkscape.org/namespaces/inkscape"
   xmlns:sodipodi="http://sodipodi.sourceforge.net/DTD/sodipodi-0.dtd"
   xmlns="http://www.w3.org/2000/svg"
   xmlns:svg="http://www.w3.org/2000/svg"><sodipodi:namedview
     id="namedview1"
     pagecolor="#ffffff"
     bordercolor="#000000"
     borderopacity="0.25"
     inkscape:showpageshadow="2"
     inkscape:pageopacity="0.0"
     inkscape:pagecheckerboard="0"
     inkscape:deskcolor="#d1d1d1"
     inkscape:document-units="mm"
     inkscape:zoom="0.78316667"
     inkscape:cx="377.95275"
     inkscape:cy="377.95275"
     inkscape:window-width="1440"
     inkscape:window-height="830"
     inkscape:window-x="-6"
     inkscape:window-y="-6"
     inkscape:window-maximized="1"
     inkscape:current-layer="layer1" /><defs
     id="defs1" /><g
     inkscape:label="Layer 1"
     inkscape:groupmode="layer"
     id="layer1"><circle
       style="vector-effect:non-scaling-stroke;fill:#003049;fill-opacity:1;stroke-width:0.391705;-inkscape-stroke:hairline"
       id="path6"
       cx="50"
       cy="50"
       r="50" /><path
       id="path37"
       style="fill:#fdf0d5;fill-opacity:1;stroke-width:1.52778"
       d="m 38.743661,24.624782 v 3.041964 3.04155 h 11.290673 c 6.780443,0 11.725612,0.08174 12.379399,0.204876 5.170786,0.973379 7.974112,6.467568 5.725471,11.220814 -0.644183,1.36168 -2.193826,2.899881 -3.669214,3.641968 -1.114318,0.560513 -1.327902,0.593115 -4.504504,0.693185 l -3.334859,0.104959 -0.05645,2.820099 c -0.03108,1.550911 -0.0064,2.950449 0.05488,3.11024 0.09313,0.242627 0.651733,0.271899 3.391307,0.17765 3.763738,-0.129556 4.944529,-0.383335 7.423297,-1.596774 1.379838,-0.675493 2.057391,-1.182304 3.441835,-2.574967 2.8654,-2.882403 4.118617,-5.873522 4.114492,-9.818648 -0.0027,-2.641151 -0.366091,-4.169772 -1.517028,-6.385893 -1.829317,-3.522328 -4.895636,-6.032396 -8.767819,-7.176962 -1.090064,-0.322194 -2.464322,-0.365675 -13.592074,-0.431064 z m -13.743659,0.02017 v 17.886962 17.886978 h 3.03169 3.031688 V 56.578752 52.7386 h 7.781337 7.781336 v 11.318317 11.318301 h 3.03169 3.031688 V 56.97784 38.580063 l -2.98116,0.05607 -2.981161,0.05561 -0.05488,3.890675 -0.05486,3.890662 H 38.840375 31.063382 V 35.559 24.644918 h -3.03169 z" /></g></svg>
